<svg xmlns="http://www.w3.org/2000/svg" version="1.0" width="300.000000pt" height="306.000000pt" viewBox="0 0 300.000000 306.000000" preserveAspectRatio="xMidYMid meet">
    <metadata>
    Created by potrace 1.10, written by Peter Selinger 2001-2011
    </metadata>
    <g transform="translate(0.000000,306.000000) scale(0.100000,-0.100000)" fill="#000000" stroke="none">
    <path d="M1440 3036 c-3 -3 -49 -11 -101 -19 -93 -14 -163 -41 -269 -105 -19 -12 -51 -30 -70 -41 -37 -22 -100 -76 -100 -87 0 -9 -49 -54 -59 -54 -12 0 -25 -87 -30 -197 -1 -12 -8 -28 -16 -36 -8 -8 -14 -28 -14 -44 0 -15 0 -55 0 -88 -1 -37 6 -83 19 -120 38 -110 95 -396 82 -409 -3 -3 -20 5 -38 19 -44 34 -78 33 -92 -2 -32 -82 -23 -154 38 -308 16 -38 31 -87 35 -108 5 -31 12 -41 39 -52 30 -13 33 -19 45 -82 7 -37 21 -94 32 -127 22 -66 20 -84 -17 -164 -56 -119 -148 -182 -339 -231 -121 -31 -209 -56 -367 -108 l-88 -28 0 -282 0 -283 1390 0 1390 0 0 310 c0 284 -1 310 -17 318 -10 5 -65 20 -123 32 -58 12 -139 30 -181 41 -42 10 -157 30 -255 44 -98 13 -194 27 -213 29 -34 5 -101 59 -101 81 0 7 22 49 50 94 60 101 84 162 100 261 13 81 23 105 51 132 23 23 35 64 60 218 22 137 19 215 -10 251 -14 18 -21 20 -39 10 -39 -21 -44 -15 -37 42 3 28 20 103 36 166 16 63 29 132 29 154 0 22 10 60 24 86 55 107 57 154 10 241 -16 29 -24 58 -22 80 2 27 -1 35 -19 39 -38 10 -123 120 -123 161 -1 23 -2 24 -14 8 -19 -26 -36 -22 -36 7 0 14 -9 34 -20 45 -11 11 -17 26 -14 33 7 19 -33 29 -57 14 -14 -9 -22 -7 -38 7 -25 23 -70 30 -173 27 -42 -1 -85 2 -95 7 -20 10 -235 26 -243 18z m230 -56 c11 -6 58 -10 103 -9 51 1 97 -4 122 -13 22 -8 57 -18 77 -22 32 -6 44 -16 73 -61 19 -30 39 -55 43 -55 5 0 26 -25 48 -55 21 -30 45 -55 52 -55 15 0 16 -15 2 -40 -8 -15 -2 -26 30 -58 55 -55 77 -120 59 -175 -7 -23 -16 -47 -21 -53 -16 -22 -47 -125 -41 -139 6 -18 -13 -20 -21 -2 -3 6 -4 3 -1 -9 3 -12 -1 -48 -8 -80 -8 -33 -12 -80 -10 -106 2 -26 0 -49 -6 -53 -15 -9 -13 -73 4 -120 8 -22 14 -35 15 -29 0 13 45 35 54 27 11 -11 6 -36 -10 -47 -11 -9 -13 -20 -8 -41 l8 -30 8 33 c19 72 45 4 30 -78 l-8 -45 -7 43 c-4 23 -11 42 -15 42 -8 0 -7 -168 1 -176 8 -8 -4 -44 -14 -44 -5 0 -7 -10 -4 -23 4 -16 0 -28 -12 -37 -10 -8 -15 -11 -11 -6 4 4 2 19 -3 33 -6 17 -6 30 1 38 5 7 8 43 5 86 -2 41 -5 84 -5 97 0 12 -4 22 -10 22 -5 0 -8 -42 -6 -105 1 -58 -1 -108 -6 -111 -4 -3 -4 -13 1 -22 6 -12 1 -41 -15 -91 -13 -40 -24 -80 -24 -88 0 -8 -7 -28 -16 -45 -11 -22 -13 -33 -5 -41 14 -14 14 -28 0 -25 -6 2 -14 -3 -16 -9 -3 -7 0 -13 5 -13 6 0 3 -17 -6 -40 -9 -22 -22 -40 -28 -40 -7 0 -9 -11 -7 -27 3 -20 2 -24 -5 -14 -8 10 -11 6 -17 -18 -3 -17 -11 -31 -16 -31 -5 0 -9 -7 -9 -15 0 -9 -7 -18 -15 -21 -9 -4 -15 -19 -15 -41 0 -26 -5 -36 -20 -40 -11 -3 -17 -9 -14 -14 3 -5 -21 -33 -52 -61 -31 -29 -69 -65 -84 -80 -35 -34 -88 -61 -105 -54 -9 3 -12 0 -9 -9 9 -23 -70 -38 -195 -37 -78 0 -116 4 -121 12 -4 7 -13 9 -19 6 -6 -4 -11 -1 -11 8 0 10 -6 13 -16 9 -11 -4 -45 24 -111 91 -52 53 -100 95 -105 94 -14 -5 126 -153 178 -188 53 -37 75 -42 214 -47 116 -4 178 6 211 34 8 7 19 13 24 13 17 0 75 52 75 66 0 9 6 14 13 11 12 -4 11 -44 -3 -62 -4 -5 -15 -46 -25 -90 -9 -44 -32 -134 -50 -200 -18 -66 -40 -154 -50 -195 -29 -119 -30 -120 -84 -113 -25 3 -49 11 -53 17 -6 8 -10 8 -15 0 -9 -14 -273 -17 -273 -4 0 5 -12 3 -27 -5 -48 -25 -62 -8 -103 130 -12 39 -30 95 -41 126 -10 31 -19 65 -19 77 0 11 -4 24 -10 27 -5 3 -10 16 -10 28 0 13 -13 63 -29 112 -55 171 -83 290 -88 380 -6 83 -5 89 11 76 19 -16 109 -178 112 -201 7 -71 26 -97 214 -290 104 -107 190 -198 190 -202 0 -5 5 -8 11 -8 5 0 7 5 4 11 -16 24 48 69 139 97 30 9 44 17 33 20 -26 5 -117 -27 -155 -55 l-34 -25 -59 58 c-176 173 -289 301 -312 353 -13 31 -16 46 -8 49 6 2 11 11 11 20 0 15 2 15 10 2 6 -9 10 -10 10 -3 0 7 -12 18 -27 25 -17 8 -28 21 -28 33 0 11 -7 21 -16 23 -18 3 -66 91 -79 144 -31 122 -38 153 -33 161 2 4 -1 18 -9 30 -8 12 -13 32 -12 45 1 12 -1 22 -5 22 -3 0 -7 12 -8 26 0 15 -5 29 -11 33 -5 3 -13 49 -17 101 -6 76 -10 89 -16 65 -5 -16 -7 -45 -4 -65 13 -109 14 -130 4 -130 -13 0 -42 69 -35 86 3 7 -2 20 -10 29 -9 9 -17 32 -19 53 -1 20 -6 65 -10 100 -7 54 -9 60 -21 45 -14 -20 -12 -21 -29 32 -2 8 1 17 6 21 6 3 9 15 6 25 -7 26 10 34 22 11 10 -19 51 -37 51 -22 0 4 -12 19 -27 34 -36 36 -23 43 32 17 41 -19 45 -24 45 -56 0 -25 -5 -35 -15 -35 -13 0 -13 -3 -3 -21 10 -16 10 -23 1 -26 -13 -5 -2 -60 12 -56 4 2 9 20 11 40 18 210 17 189 9 294 -5 60 -4 88 4 93 17 11 13 23 -9 29 -15 4 -20 14 -20 36 0 18 -7 42 -15 55 -9 13 -18 37 -21 52 -3 16 -9 43 -15 61 -10 33 -7 152 6 172 3 6 9 35 11 64 12 141 20 159 104 239 42 41 94 82 116 92 21 10 46 24 54 30 37 30 150 69 243 85 110 19 272 20 307 1z m586 -321 c7 -12 -15 -31 -31 -26 -5 2 -11 11 -13 20 -4 19 32 24 44 6z m-1320 -1752 c1 -7 11 -47 23 -90 11 -42 21 -84 21 -93 0 -8 9 -33 19 -55 11 -22 25 -66 32 -97 6 -31 15 -61 19 -67 6 -8 21 -72 25 -110 2 -18 27 -100 33 -110 4 -5 8 -19 9 -29 2 -11 7 -24 12 -30 5 -6 11 -31 13 -56 l3 -45 -479 -3 c-377 -2 -481 0 -488 10 -4 7 -8 115 -8 239 0 184 3 229 14 238 15 13 179 71 199 71 7 0 25 7 41 15 16 9 31 13 34 11 2 -3 13 -1 23 5 11 5 61 19 111 29 116 25 221 76 284 137 50 49 56 52 60 30z m1109 -61 c38 -28 56 -35 117 -40 40 -4 96 -9 123 -12 62 -5 74 -8 210 -38 61 -14 124 -25 141 -26 16 0 34 -4 40 -9 5 -6 25 -12 44 -14 19 -2 42 -7 50 -10 8 -3 31 -10 50 -15 l35 -8 0 -275 0 -274 -547 -3 c-608 -2 -587 -5 -567 61 18 57 27 90 44 172 9 44 23 97 31 118 8 20 14 50 14 65 0 15 11 71 25 125 21 88 29 103 76 157 29 33 56 60 61 60 5 0 29 -15 53 -34z"/>
    <path d="M1730 2482 c0 -6 4 -12 8 -12 9 0 32 -44 32 -62 0 -6 -7 -5 -17 3 -9 8 -14 10 -11 4 2 -5 11 -25 18 -42 14 -32 33 -42 45 -24 8 15 -25 93 -51 121 -13 13 -24 19 -24 12z"/>
    <path d="M1110 1931 c0 -5 6 -12 13 -15 9 -5 9 -7 -2 -12 -9 -4 0 -11 25 -20 24 -8 42 -10 48 -4 12 12 6 19 -24 23 -12 2 -28 11 -35 20 -13 19 -25 22 -25 8z"/>
    <path d="M2065 1921 c6 -11 -50 -41 -76 -41 -10 0 -24 -9 -32 -20 -8 -12 -18 -20 -23 -19 -18 3 -34 -1 -34 -10 0 -5 15 -5 33 -1 17 4 31 12 30 18 -2 7 7 12 20 12 12 0 33 7 45 16 12 8 38 16 57 17 l35 2 -23 17 c-24 19 -42 24 -32 9z"/>
    <path d="M1295 1915 c-5 -2 -27 -6 -47 -10 -21 -3 -38 -10 -38 -14 0 -15 42 -20 61 -8 15 9 24 9 40 -1 17 -11 20 -11 13 0 -4 7 2 4 14 -6 25 -22 27 -18 10 19 -10 23 -26 29 -53 20z"/>
    <path d="M1367 1913 c-3 -5 5 -19 19 -32 13 -13 24 -18 24 -12 0 17 -37 54 -43 44z"/>
    <path d="M1825 1913 c-59 -7 -73 -13 -90 -40 -10 -16 -15 -25 -10 -21 4 4 19 2 33 -3 21 -8 23 -7 14 4 -12 14 3 25 51 41 24 7 22 -10 -4 -27 -14 -10 -17 -17 -9 -22 7 -4 24 7 41 26 21 23 32 30 40 22 8 -8 8 -13 0 -17 -6 -4 -11 -15 -10 -24 0 -13 3 -12 11 5 7 14 23 24 49 28 51 9 39 29 -12 22 -22 -3 -42 -1 -45 4 -3 5 -11 8 -17 8 -7 -1 -25 -4 -42 -6z"/>
    <path d="M984 1879 c-16 -17 -16 -22 -4 -29 12 -8 9 -10 -10 -10 -22 0 -23 -1 -8 -16 12 -12 24 -15 45 -9 27 6 27 7 9 21 -19 13 -19 14 -1 14 18 0 18 0 0 13 -26 20 -4 29 28 12 15 -8 27 -10 27 -5 0 6 -51 30 -65 30 -1 0 -10 -9 -21 -21z"/>
    <path d="M2088 1873 c14 -6 16 -33 2 -33 -5 0 -10 -5 -10 -11 0 -5 5 -7 11 -4 5 4 19 -1 29 -10 19 -17 20 -17 26 0 4 10 1 21 -7 26 -12 7 -12 9 0 9 26 0 -7 25 -36 27 -15 1 -22 -1 -15 -4z"/>
    <path d="M1262 1860 c-12 -5 -30 -7 -40 -4 -15 5 -15 4 -2 -6 12 -9 9 -11 -17 -6 -18 3 -33 2 -33 -3 0 -12 69 -19 73 -8 1 4 17 9 35 9 18 1 31 6 29 11 -5 15 -19 17 -45 7z"/>
    <path d="M1183 1783 c-24 -2 -43 -7 -43 -11 0 -4 -15 -14 -32 -22 l-33 -15 27 -3 c15 -2 38 4 50 12 28 20 38 20 38 3 0 -23 35 -47 69 -47 27 0 34 5 46 34 12 28 18 33 42 30 21 -3 17 0 -12 10 -40 14 -71 16 -152 9z"/>
    <path d="M1380 1779 c14 -6 29 -17 33 -25 5 -8 12 -12 18 -9 5 4 9 1 9 -4 0 -6 5 -11 11 -11 17 0 -10 29 -42 46 -16 8 -34 14 -41 13 -7 0 -2 -5 12 -10z"/>
    <path d="M1703 1768 c-23 -26 -36 -68 -25 -84 4 -6 16 -14 27 -17 16 -6 16 -4 -4 12 -24 18 -24 20 -8 44 9 15 27 35 39 47 16 15 18 20 7 20 -9 0 -25 -10 -36 -22z"/>
    <path d="M1834 1782 c-29 -3 -31 -5 -25 -30 7 -27 42 -52 73 -52 9 0 26 13 38 30 20 29 22 29 50 15 28 -15 112 -19 88 -4 -6 4 -15 6 -19 3 -4 -2 -9 5 -12 15 -4 17 -16 20 -83 23 -44 2 -93 2 -110 0z"/>
    <path d="M1640 1673 c0 -5 9 -21 20 -38 22 -34 27 -23 8 18 -12 25 -28 36 -28 20z"/>
    <path d="M1407 1538 c-2 -7 -5 -16 -6 -20 -1 -4 -13 -31 -26 -60 -25 -53 -30 -93 -19 -135 8 -28 35 -40 31 -13 -2 11 -6 23 -10 26 -13 13 -7 54 12 95 19 38 38 119 28 119 -3 0 -7 -6 -10 -12z"/>
    <path d="M1676 1475 c3 -16 12 -39 19 -50 23 -38 28 -95 10 -122 -9 -13 -14 -27 -11 -31 3 -3 6 0 6 6 0 7 6 12 14 12 14 0 26 29 26 65 0 37 -20 90 -46 120 l-25 30 7 -30z"/>
    <path d="M1412 1329 c-10 -16 -9 -19 7 -19 11 0 23 -4 26 -10 3 -5 1 -10 -4 -10 -6 0 -11 -6 -11 -13 0 -19 20 -36 36 -30 11 4 11 11 -1 39 -8 19 -20 41 -28 48 -11 12 -15 11 -25 -5z"/>
    <path d="M1610 1286 c0 -8 -7 -16 -15 -20 -17 -6 -20 -26 -4 -26 5 0 7 5 3 11 -4 7 -1 10 7 7 8 -3 13 -11 12 -17 -4 -16 12 -14 27 4 7 8 19 15 26 15 8 0 14 5 14 11 0 5 -4 8 -9 4 -5 -3 -16 2 -24 10 -19 19 -37 19 -37 1z"/>
    <path d="M1338 1063 c-41 -17 -47 -27 -22 -37 10 -4 22 1 29 11 14 19 102 21 149 3 20 -7 44 -7 85 1 45 10 67 10 102 0 69 -20 109 -24 109 -12 0 6 -12 13 -27 17 -16 3 -38 10 -51 15 -31 12 -129 12 -137 -1 -9 -14 -53 -12 -100 5 -50 18 -90 17 -137 -2z"/>
    <path d="M1028 770 c3 -23 8 -29 21 -25 10 3 28 -4 41 -15 35 -30 38 -24 5 10 -16 17 -35 28 -43 25 -8 -3 -12 2 -10 12 2 9 -2 18 -8 20 -7 2 -9 -8 -6 -27z"/>
    <path d="M1190 613 c0 -15 41 -55 49 -48 3 3 -7 18 -22 33 -15 14 -27 21 -27 15z"/>
    <path d="M1416 325 c-9 -24 -8 -25 15 -25 14 0 19 5 17 17 -4 23 -24 27 -32 8z"/>
    <path d="M1669 335 c-3 -2 -36 -9 -73 -14 -74 -11 -82 -14 -71 -31 4 -7 10 -8 14 -3 3 5 40 15 81 22 41 8 84 17 95 22 17 6 15 8 -11 8 -17 1 -33 -1 -35 -4z"/>
    <path d="M1445 271 c-3 -6 -15 -11 -26 -11 -11 0 -17 -4 -14 -10 10 -16 42 -12 49 6 8 20 1 30 -9 15z"/>
    </g>
    <style>
        path { fill: #000; }
        @media (prefers-color-scheme: dark) {
            path { fill: #FFF; }
        }
    </style>
    </svg>
